<?xml version="1.0" standalone="no"?>
<!DOCTYPE svg PUBLIC "-//W3C//DTD SVG 20010904//EN"
 "http://www.w3.org/TR/2001/REC-SVG-20010904/DTD/svg10.dtd">
<svg version="1.0" xmlns="http://www.w3.org/2000/svg"
 width="300.000000pt" height="236.000000pt" viewBox="0 0 300.000000 236.000000"
 preserveAspectRatio="xMidYMid meet">
<metadata>
Created by potrace 1.10, written by Peter Selinger 2001-2011
</metadata>
<g transform="translate(0.000000,236.000000) scale(0.100000,-0.100000)"
fill="#000000" stroke="none">
<path d="M2048 1833 c-10 -2 -18 -8 -18 -13 0 -5 7 -7 15 -4 8 4 15 1 15 -4 0
-6 -8 -13 -17 -15 -14 -4 -12 -5 5 -6 17 -1 22 4 22 24 0 14 -1 24 -2 24 -2
-1 -11 -3 -20 -6z"/>
<path d="M550 1810 c0 -14 6 -20 23 -19 16 1 18 2 5 6 -10 2 -18 9 -18 15 0 5
7 8 15 4 8 -3 15 -1 15 4 0 6 -9 10 -20 10 -13 0 -20 -7 -20 -20z"/>
<path d="M1330 1815 c0 -8 -9 -15 -20 -15 -11 0 -20 -7 -20 -15 0 -8 9 -15 19
-15 11 0 22 -6 24 -12 3 -8 6 -7 6 4 1 10 -8 18 -21 21 l-23 4 23 2 c15 1 22
7 22 21 0 11 -2 20 -5 20 -3 0 -5 -7 -5 -15z"/>
<path d="M2101 1808 c0 -22 1 -22 9 -3 7 17 9 17 9 3 1 -10 8 -18 17 -18 9 0
12 5 8 12 -5 8 0 9 14 6 12 -4 22 -3 22 2 0 7 -47 20 -71 20 -5 0 -9 -10 -8
-22z"/>
<path d="M2090 1770 c-11 -7 -9 -13 11 -29 27 -22 38 -12 17 18 -10 13 -18 17
-28 11z"/>
<path d="M2080 1637 c0 -10 -9 -21 -20 -25 -10 -4 -16 -12 -12 -17 12 -17 53
28 42 45 -8 12 -10 12 -10 -3z"/>
<path d="M1990 1473 c0 -16 6 -23 20 -23 14 0 20 7 20 23 0 16 -6 23 -20 23
-14 0 -20 -7 -20 -23z"/>
<path d="M2170 1475 c0 -9 11 -13 30 -13 29 1 44 17 18 19 -7 0 -21 2 -30 4
-10 2 -18 -3 -18 -10z"/>
<path d="M562 1420 c-26 -12 -43 -28 -52 -51 -14 -34 -16 -79 -2 -88 4 -3 7
-13 7 -21 0 -21 63 -60 97 -60 30 0 63 14 84 34 19 19 36 57 28 64 -4 4 -9 1
-11 -6 -8 -21 -60 -71 -67 -65 -3 4 -6 2 -6 -3 0 -6 -11 -10 -25 -10 -14 0
-25 4 -25 9 0 4 -3 6 -8 3 -11 -6 -37 15 -52 44 -16 28 -21 90 -8 90 5 0 6 6
2 13 -4 6 -4 9 0 5 4 -3 16 2 27 13 10 10 33 19 49 19 18 0 30 5 30 13 0 18
-23 17 -68 -3z"/>
<path d="M2161 1400 c0 -23 1 -23 9 -5 7 17 9 17 9 3 1 -27 21 -22 21 5 0 16
-6 23 -20 23 -15 0 -20 -7 -19 -26z"/>
<path d="M1897 1403 c6 -16 5 -16 -10 -4 -24 19 -21 -2 3 -24 11 -10 17 -22
14 -26 -3 -5 2 -9 11 -9 13 0 14 3 3 23 -7 12 -11 27 -10 34 1 6 -2 14 -8 18
-6 4 -7 -1 -3 -12z"/>
<path d="M2250 1405 c0 -10 10 -14 35 -13 37 1 46 12 19 22 -28 11 -54 6 -54
-9z"/>
<path d="M555 1375 c-32 -31 -32 -75 -1 -111 53 -63 155 -16 142 65 -11 70
-92 96 -141 46z m96 -57 c15 -23 10 -28 -23 -25 -26 2 -32 7 -30 22 2 16 0 16
-13 -5 -15 -23 -16 -23 -12 -3 3 12 0 25 -7 28 -6 3 9 3 33 1 24 -3 48 -10 52
-18z"/>
<path d="M1960 1345 c0 -8 0 -18 -1 -22 0 -4 4 -9 10 -11 6 -2 11 8 11 22 0
14 -4 26 -10 26 -5 0 -10 -7 -10 -15z"/>
<path d="M1990 1333 c0 -13 5 -23 11 -23 6 0 9 7 5 15 -3 8 -1 15 4 15 6 0 10
-8 11 -17 0 -15 2 -15 9 2 7 17 9 17 9 3 1 -10 6 -18 11 -18 15 0 12 40 -2 41
-7 0 -23 2 -35 3 -18 2 -23 -2 -23 -21z"/>
<path d="M2100 1335 c0 -29 16 -34 23 -7 4 16 5 16 6 0 2 -26 71 -22 71 4 0
13 -8 18 -27 19 -16 0 -38 2 -50 5 -19 3 -23 -1 -23 -21z"/>
<path d="M2300 1333 c0 -16 6 -21 20 -20 13 1 20 8 20 22 0 14 -6 21 -20 21
-14 0 -20 -7 -20 -23z"/>
<path d="M802 1333 c2 -10 11 -19 21 -21 12 -3 17 3 16 20 -1 17 -3 18 -6 5
-2 -9 -9 -15 -14 -11 -5 3 -7 10 -4 15 4 5 1 9 -5 9 -6 0 -10 -8 -8 -17z"/>
<path d="M1053 1329 c1 -11 9 -19 19 -19 24 0 23 26 -1 33 -15 3 -19 0 -18
-14z"/>
<path d="M2423 1338 c0 -9 13 -14 34 -15 42 -1 39 21 -4 25 -20 2 -30 -1 -30
-10z"/>
<path d="M2021 1268 c-1 -25 2 -28 34 -28 31 0 35 3 35 25 0 31 -20 33 -21 3
-1 -22 -1 -22 -9 2 l-8 25 -8 -25 -8 -25 -7 25 -7 25 -1 -27z"/>
<path d="M2100 1265 c0 -23 3 -25 50 -25 47 0 50 2 50 25 0 31 -8 32 -20 3 -9
-23 -9 -23 -9 -2 -1 28 -33 27 -43 -1 -6 -19 -6 -18 -7 3 -1 30 -21 28 -21 -3z"/>
<path d="M2300 1263 c0 -16 6 -23 20 -23 14 0 20 7 20 23 0 16 -6 23 -20 23
-14 0 -20 -7 -20 -23z"/>
<path d="M2471 1270 c-1 -19 4 -26 19 -27 15 -1 20 4 20 23 0 27 -20 34 -21 7
0 -15 -2 -15 -9 2 -8 18 -9 18 -9 -5z"/>
<path d="M2590 1268 c0 -8 31 -16 68 -16 14 -1 22 4 19 11 -4 13 -87 18 -87 5z"/>
<path d="M1827 998 c2 -201 4 -233 18 -236 13 -3 15 25 15 232 0 218 -1 236
-17 236 -17 0 -18 -17 -16 -232z"/>
<path d="M1777 973 c2 -181 4 -208 18 -211 14 -3 16 19 14 207 -1 187 -3 211
-18 211 -14 0 -16 -22 -14 -207z"/>
<path d="M1677 963 c2 -170 4 -198 18 -201 13 -3 15 15 15 136 0 103 -3 142
-12 145 -10 4 -10 6 0 6 8 1 12 19 12 56 0 46 -3 55 -17 55 -17 0 -18 -15 -16
-197z"/>
<path d="M1729 1098 c-2 -290 0 -333 16 -336 14 -3 15 19 14 197 -1 162 -4
201 -15 201 -10 0 -14 -17 -15 -62z"/>
<path d="M1630 1095 c0 -26 3 -33 15 -29 9 4 15 19 15 35 0 19 -5 29 -15 29
-10 0 -15 -11 -15 -35z"/>
<path d="M1579 1073 c-8 -82 6 -308 19 -310 9 -2 12 37 12 172 0 143 -3 175
-14 175 -9 0 -15 -14 -17 -37z"/>
<path d="M1530 1069 c0 -24 23 -21 28 4 2 10 -3 17 -12 17 -10 0 -16 -9 -16
-21z"/>
<path d="M1479 1058 c-2 -13 -2 -84 1 -158 4 -97 9 -136 18 -137 9 -2 12 23
12 102 0 63 -4 105 -10 105 -5 0 -10 8 -10 18 0 14 2 15 10 2 7 -11 10 -7 10
17 0 17 -6 34 -12 36 -10 4 -10 6 0 6 17 1 15 31 -2 31 -7 0 -15 -10 -17 -22z"/>
<path d="M643 1042 c-15 -2 -25 -13 -32 -35 -15 -53 -102 -337 -107 -350 -3
-9 210 -13 951 -16 671 -3 955 -1 955 7 0 6 -3 18 -6 26 -6 15 -7 15 -18 0
-11 -15 -83 -16 -827 -15 -788 1 -983 5 -1009 21 -15 9 -12 22 41 195 19 61
38 113 43 116 17 13 73 -10 100 -40 11 -11 24 -21 30 -21 6 0 -13 22 -42 48
l-53 47 121 0 c95 -1 123 -4 130 -15 8 -12 10 -12 10 4 0 18 9 18 212 12 123
-5 218 -12 225 -18 9 -7 13 -7 13 1 0 6 11 11 25 11 l25 0 0 -130 c0 -110 2
-130 15 -130 13 0 15 20 13 138 l-3 137 -395 5 c-217 3 -405 4 -417 2z"/>
<path d="M1628 1045 c-1 -2 -2 -67 0 -144 2 -115 6 -141 18 -141 21 0 21 275
0 283 -8 3 -16 4 -18 2z"/>
<path d="M1530 900 c0 -118 2 -140 15 -140 13 0 15 22 15 140 0 118 -2 140
-15 140 -13 0 -15 -22 -15 -140z"/>
<path d="M1885 1030 c-4 -6 23 -10 75 -10 52 0 79 4 75 10 -3 6 -37 10 -75 10
-38 0 -72 -4 -75 -10z"/>
<path d="M2033 996 c-55 -33 -69 -46 -61 -54 9 -9 9 -12 -1 -12 -11 0 -11 -3
-1 -15 9 -11 9 -15 1 -15 -7 0 -9 -5 -4 -12 4 -7 8 -19 8 -27 0 -8 5 -16 10
-18 6 -2 10 15 9 40 0 23 3 50 8 59 10 21 79 58 105 58 26 0 98 -45 96 -58 -4
-15 3 -15 29 -1 19 10 17 13 -28 38 -27 15 -60 34 -74 43 -24 16 -28 15 -97
-26z"/>
<path d="M2170 1029 c0 -5 23 -9 51 -9 39 0 50 -3 46 -13 -4 -10 2 -13 19 -9
25 5 29 10 16 27 -9 12 -132 16 -132 4z"/>
<path d="M320 843 c-35 -87 -63 -173 -63 -190 -1 -49 31 -86 88 -100 35 -9
329 -13 1139 -14 970 -2 1095 0 1128 14 41 17 58 42 58 86 0 30 -109 345 -117
338 -2 -3 19 -68 47 -145 29 -78 50 -151 48 -164 -2 -16 -14 -26 -43 -34 l-40
-12 38 -1 c31 -1 38 -4 35 -18 -2 -10 -17 -25 -33 -33 -26 -13 -170 -15 -1130
-15 -605 0 -1112 3 -1127 8 -16 4 -28 12 -28 17 0 6 12 9 28 8 15 -1 232 0
482 2 l455 4 -465 6 c-256 4 -478 11 -493 15 -16 4 -34 20 -43 37 -15 29 -14
35 42 177 31 80 62 152 67 159 6 8 6 12 -1 12 -5 0 -38 -71 -72 -157z"/>
<path d="M970 970 c-24 -14 -51 -19 -87 -18 -35 1 -59 -4 -75 -16 l-23 -17 25
7 c14 3 52 8 84 11 32 2 74 10 93 18 29 12 39 12 75 -1 25 -8 55 -12 75 -8 29
5 39 2 64 -22 29 -27 40 -52 17 -38 -7 4 -8 3 -4 -5 4 -6 11 -25 16 -41 7 -23
5 -28 -6 -23 -17 6 -17 1 -3 -30 8 -18 8 -30 0 -46 -12 -21 -15 -21 -269 -19
l-257 3 -3 48 c-2 35 0 47 8 42 7 -4 4 7 -5 25 -11 21 -15 45 -12 66 3 19 1
36 -4 39 -5 4 -9 -44 -9 -119 l0 -125 290 -3 290 -3 0 105 0 106 -40 39 c-40
39 -41 39 -67 23 -25 -15 -30 -14 -71 3 -53 23 -58 23 -102 -1z"/>
<path d="M1378 860 c-3 -90 -1 -100 15 -100 15 0 17 11 17 100 0 80 -3 100
-14 100 -12 0 -15 -21 -18 -100z"/>
<path d="M2219 925 c-1 -3 -2 -22 -3 -43 -1 -33 2 -38 18 -34 18 5 18 6 2 17
-15 12 -15 13 1 20 17 7 17 8 -2 15 -11 5 -14 9 -7 9 14 1 17 21 2 21 -5 0
-11 -2 -11 -5z"/>
<path d="M2315 920 c6 -10 85 -11 85 -2 0 4 -20 8 -45 8 -24 1 -42 -2 -40 -6z"/>
<path d="M1966 802 c-2 -4 28 -25 68 -46 l72 -39 67 39 c62 36 82 54 57 54 -6
0 -36 -16 -66 -35 -54 -35 -55 -35 -87 -19 -18 9 -44 25 -59 35 -28 20 -44 24
-52 11z"/>
<path d="M2344 743 c9 -10 85 -12 91 -3 3 4 -18 8 -46 8 -28 1 -48 -2 -45 -5z"/>
</g>
</svg>
